HIERARCHY
ROOT ui
{
	 OFFSET 0 0 0
	 CHANNELS 3 XPosition YPosition Z Position
	 EndSite
	 {
	 OFFSET 0 -1 0
	 }
}
ROOT li
{
	 OFFSET 0 0 0
	 CHANNELS 3 XPosition YPosition Z Position
	 EndSite
	 {
	 OFFSET 0 -1 0
	 }
}
ROOT ul
{
	 OFFSET 0 0 0
	 CHANNELS 3 XPosition YPosition Z Position
	 EndSite
	 {
	 OFFSET 0 -1 0
	 }
}
ROOT ll
{
	 OFFSET 0 0 0
	 CHANNELS 3 XPosition YPosition Z Position
	 EndSite
	 {
	 OFFSET 0 -1 0
	 }
}
ROOT tt
{
	 OFFSET 0 0 0
	 CHANNELS 3 XPosition YPosition Z Position
	 EndSite
	 {
	 OFFSET 0 -1 0
	 }
}
ROOT tb
{
	 OFFSET 0 0 0
	 CHANNELS 3 XPosition YPosition Z Position
	 EndSite
	 {
	 OFFSET 0 -1 0
	 }
}
ROOT td
{
	 OFFSET 0 0 0
	 CHANNELS 3 XPosition YPosition Z Position
	 EndSite
	 {
	 OFFSET 0 -1 0
	 }
}
ROOT v
{
	 OFFSET 0 0 0
	 CHANNELS 3 XPosition YPosition Z Position
	 EndSite
	 {
	 OFFSET 0 -1 0
	 }
}
ROOT bn
{
	 OFFSET 0 0 0
	 CHANNELS 3 XPosition YPosition Z Position
	 EndSite
	 {
	 OFFSET 0 -1 0
	 }
}
MOTION
Frames: 29
Frame Time: 0.002
0.0033694911003112793	3.774659931659698E-4	0		0.595427734375	-2.491432861328125	0		-1.0964930419921874	0.019958124160766602	0		-0.637467529296875	-2.57857763671875	0		1.297575439453125	-0.8161094970703126	0		3.244132080078125	-0.2478074188232422	0		4.71641064453125	-0.12196368408203125	0		5.60197265625	0.15705792236328125	0		-0.2569012756347656	5.89915380859375	0		
0.027859329223632812	2.1399900317192077E-4	0		0.59580126953125	-2.489396728515625	0		-1.0980008544921875	0.020106571197509766	0		-0.650030517578125	-2.569348388671875	0		1.296021728515625	-0.8160924682617188	0		3.2396484375	-0.24386846923828126	0		4.72096240234375	-0.11519276428222656	0		5.6072998046875	0.1548052978515625	0		-0.2240299072265625	5.90492724609375	0		
4.0204399824142457E-4	5.556449890136718E-4	0		0.6171396484375	-2.49656201171875	0		-1.060469970703125	0.018876522064208985	0		-0.606755859375	-2.58266015625	0		1.29148046875	-0.8200426025390625	0		3.25604931640625	-0.25712701416015626	0		4.715439453125	-0.12131732940673828	0		5.60625146484375	0.15444650268554688	0		-0.22517076110839843	5.905029296875	0		
0.021966207504272462	-0.003578387022018433	0		0.5886351928710938	-2.494239501953125	0		-1.072844482421875	0.021129810333251953	0		-0.621226318359375	-2.5764111328125	0		1.290042236328125	-0.8200189208984375	0		3.2337197265625	-0.24900038146972656	0		4.7040380859375	-0.1213736801147461	0		5.6023466796875	0.1420648498535156	0		-0.2603168029785156	5.89946435546875	0		
-0.005356166839599609	-0.003233928918838501	0		0.5892175903320312	-2.491198486328125	0		-1.0631871337890626	0.019164896011352538	0		-0.6436959838867188	-2.578083984375	0		1.297648193359375	-0.8230811767578124	0		3.24323583984375	-0.2641779479980469	0		4.7076396484375	-0.1285654602050781	0		5.59788427734375	0.15567153930664063	0		-0.24525057983398438	5.90940966796875	0		
4.683279991149902E-4	0.003785259008407593	0		0.5939259643554687	-2.484197021484375	0		-1.0993792724609375	0.024648359298706055	0		-0.5951221923828125	-2.584458984375	0		1.29650390625	-0.8090540161132812	0		3.253225830078125	-0.23935079956054686	0		4.71349755859375	-0.11776649475097656	0		5.6063037109375	0.16553611755371095	0		-0.24621884155273438	5.909509765625	0		
0.021278688430786133	6.534469723701477E-4	0		0.616608154296875	-2.48937451171875	0		-1.0655885009765624	0.019435539245605468	0		-0.6443019409179688	-2.57487109375	0		1.292270263671875	-0.8129942016601562	0		3.234878662109375	-0.25723651123046876	0		4.7102939453125	-0.12186521911621094	0		5.59615673828125	0.15511277770996093	0		-0.24811074829101562	5.9106162109375	0		
-0.005789199829101563	9.95006024837494E-4	0		0.5854208374023437	-2.491016845703125	0		-1.0666568603515625	0.019561668395996094	0		-0.5864771728515625	-2.575349365234375	0		1.2881387939453126	-0.8159324340820312	0		3.228879150390625	-0.24923316955566407	0		4.70922021484375	-0.12197035980224609	0		5.5924775390625	0.14110466003417968	0		-0.2640520935058594	5.89985986328125	0		
0.016192996978759765	-0.003154815912246704	0		0.6113223266601563	-2.49422802734375	0		-1.076702392578125	0.012770401954650878	0		-0.65059423828125	-2.579618408203125	0		1.2871324462890625	-0.8158995361328125	0		3.22976318359375	-0.2622901306152344	0		4.6982392578125	-0.12196179962158203	0		5.59177490234375	0.14089613342285157	0		-0.26481448364257815	5.89994921875	0		
-0.010688907623291015	-0.0028196420669555663	0		0.5833900146484375	-2.49090234375	0		-1.10750341796875	0.021180614471435547	0		-0.611542724609375	-2.577923583984375	0		1.286222900390625	-0.8158662109375	0		3.22809228515625	-0.24031065368652343	0		4.70228173828125	-0.1290885009765625	0		5.59405078125	0.15448757934570312	0		-0.25039732360839845	5.91088134765625	0		
0.01756025505065918	9.585540294647217E-4	0		0.5865707397460938	-2.486889404296875	0		-1.1082923583984374	0.021281373977661132	0		-0.6463524780273437	-2.5724951171875	0		1.2884405517578126	-0.81286279296875	0		3.231125	-0.2573707275390625	0		4.69961962890625	-0.11613106536865235	0		5.5963857421875	0.16638075256347656	0		-0.21697265625	5.9156162109375	0		
-0.009135204315185547	0.0012845439910888672	0		0.5837954711914063	-2.488818603515625	0		-1.0700006103515625	0.019978687286376952	0		-0.613161865234375	-2.577758056640625	0		1.284694580078125	-0.81579833984375	0		3.2404921875	-0.25048347473144533	0		4.705859375	-0.1222474136352539	0		5.59939404296875	0.15234130859375	0		-0.25157913208007815	5.9110283203125	0		
0.016257612228393555	0.0010809630155563354	0		0.5811224365234375	-2.49075048828125	0		-1.1095941162109375	0.02145152473449707	0		-0.6607030029296875	-2.566213623046875	0		1.2840732421875	-0.8157638549804688	0		3.227942626953125	-0.24436506652832032	0		4.7093115234375	-0.11631829071044922	0		5.598958984375	0.15226246643066407	0		-0.2671835632324219	5.900244140625	0		
-0.01329898452758789	-0.002572783946990967	0		0.5805690307617187	-2.490705810546875	0		-1.084234130859375	0.009258129119873048	0		-0.5913419189453125	-2.574858642578125	0		1.2835439453125	-0.815729248046875	0		3.220310791015625	-0.2552870330810547	0		4.7047314453125	-0.1222920913696289	0		5.5956845703125	0.14017771911621094	0		-0.2525060729980469	5.91114892578125	0		
0.012266983985900879	-0.002788918972015381	0		0.5801118774414062	-2.49066455078125	0		-1.1495418701171876	0.021973075866699218	0		-0.650796875	-2.574208740234375	0		1.283103271484375	-0.8156949462890625	0		3.218794677734375	-0.26326119995117186	0		4.70228759765625	-0.1232710952758789	0		5.591865234375	0.15409201049804688	0		-0.2178419647216797	5.91484375	0		
-0.011042531967163085	0.0014846370220184327	0		0.5858177490234375	-2.48368798828125	0		-1.0659478759765626	0.016169675827026365	0		-0.6091337890625	-2.57158984375	0		1.291848388671875	-0.805752685546875	0		3.24568359375	-0.23951248168945313	0		4.70193603515625	-0.12325572204589844	0		5.594517578125	0.16615031433105468	0		-0.25220997619628904	5.91023046875	0		
0.014682817459106445	0.0012564430236816407	0		0.5855411987304687	-2.483653564453125	0		-1.072180419921875	0.020266813278198244	0		-0.6134508056640625	-2.57551318359375	0		1.28550341796875	-0.8126580810546875	0		3.207310546875	-0.24909617614746093	0		4.70773291015625	-0.11628790283203125	0		5.59783056640625	0.15227165222167968	0		-0.21941641235351564	5.91593115234375	0		
-0.011515159606933594	0.0015495220422744752	0		0.6062451782226562	-2.493834716796875	0		-1.0814501953125	0.013385610580444336	0		-0.6156644287109375	-2.57746435546875	0		1.2822757568359375	-0.8155949096679688	0		3.2350498046875	-0.25534237670898435	0		4.70347314453125	-0.12220661163330078	0		5.58836669921875	0.14046324157714843	0		-0.2687887268066406	5.90045751953125	0		
0.011313668251037598	-0.0026587440967559815	0		0.5791605224609375	-2.490533935546875	0		-1.1205777587890624	0.01379909610748291	0		-0.6157803955078125	-2.577443115234375	0		1.2821505126953125	-0.8155637817382813	0		3.21291259765625	-0.25607827758789065	0		4.69334521484375	-0.12205635070800781	0		5.588275390625	0.14055534362792968	0		-0.26894915771484373	5.90048046875	0		
-0.014749013900756835	-0.0023765950202941895	0		0.5811353759765625	-2.48853076171875	0		-1.1115614013671875	0.021718292236328124	0		-0.649772705078125	-2.572085205078125	0		1.2820926513671875	-0.8155350341796875	0		3.22401171875	-0.2401470489501953	0		4.69634228515625	-0.11603250885009765	0		5.5911416015625	0.15442953491210937	0		-0.25394720458984377	5.91134521484375	0		
0.014287166595458985	0.0013440899848937988	0		0.5831757202148438	-2.48653173828125	0		-1.111564453125	0.021722097396850586	0		-0.6457114868164062	-2.56811767578125	0		1.2881678466796875	-0.808570068359375	0		3.206921142578125	-0.24893092346191406	0		4.70734033203125	-0.11608618927001953	0		5.591140625	0.15454196166992187	0		-0.2540046081542969	5.91135693359375	0		
0.014341144561767579	0.0013538600206375122	0		0.6112540283203125	-2.486798583984375	0		-1.072522705078125	0.02032654571533203	0		-0.6116830444335938	-2.573457763671875	0		1.288230224609375	-0.808547119140625	0		3.237966064453125	-0.2502009429931641	0		4.69639599609375	-0.11591671752929687	0		5.5911806640625	0.15465742492675782	0		-0.2691221923828125	5.90051611328125	0		
-0.011552574157714844	0.0016218769550323487	0		0.5813676147460938	-2.488483642578125	0		-1.081488037109375	0.013411581993103027	0		-0.6135699462890625	-2.5754384765625	0		1.2853038330078126	-0.8124968872070313	0		3.226134765625	-0.24403907775878905	0		4.70344140625	-0.12192985534667969	0		5.59476611328125	0.14084518432617188	0		-0.26908187866210936	5.9005185546875	0		
0.011554645538330079	-0.00260771107673645	0		0.6064923095703125	-2.493726806640625	0		-1.0913289794921874	0.014502272605895997	0		-0.662299560546875	-2.5659501953125	0		1.2764923095703125	-0.8093900756835938	0		3.214256591796875	-0.2468802490234375	0		4.693591796875	-0.12177493286132812	0		5.59136474609375	0.1548809356689453	0		-0.2689986267089844	5.900517578125	0		
-0.014259389877319336	-0.0023474149703979494	0		0.581755615234375	-2.48847021484375	0		-1.120153076171875	0.013780814170837402	0		-0.6491480712890625	-2.57208935546875	0		1.285655029296875	-0.8124680786132813	0		3.228342529296875	-0.2569870910644531	0		4.696837890625	-0.11575583648681641	0		5.59149853515625	0.1549820556640625	0		-0.25277836608886717	5.91035205078125	0		
-0.01100608730316162	0.001617650032043457	0		0.586044677734375	-2.48350927734375	0		-1.110860107421875	0.02167390823364258	0		-0.6428482055664062	-2.5661611328125	0		1.2729979248046874	-0.8003291015625	0		3.245738525390625	-0.23912986755371093	0		4.70603173828125	-0.11780195617675782	0		5.5967451171875	0.17917022705078126	0		-0.2526263885498047	5.9103447265625	0		
-0.010769936561584472	0.0016108169555664063	0		0.5863046264648437	-2.48351025390625	0		-1.0716361083984376	0.020264959335327147	0		-0.608639404296875	-2.57151513671875	0		1.292190673828125	-0.80551416015625	0		3.20787841796875	-0.24872341918945312	0		4.7082890625	-0.11578382110595703	0		5.59823388671875	0.15326649475097656	0		-0.25343670654296874	5.911345703125	0		
0.015484366416931152	0.0013414360284805299	0		0.6085099487304687	-2.490734130859375	0		-1.071380615234375	0.02024745750427246	0		-0.6572691650390625	-2.56203759765625	0		1.283483642578125	-0.8024215087890625	0		3.2182060546875	-0.2418053436279297	0		4.68956689453125	-0.11356179809570313	0		5.589095703125	0.1414491424560547	0		-0.2683407897949219	5.900486328125	0		
-0.01328152847290039	-0.002377254009246826	0		0.5808017578125	-2.490458740234375	0		-1.0842176513671875	0.009361003875732422	0		-0.5791626586914063	-2.5808330078125	0		1.28072216796875	-0.8063919067382812	0		3.22035009765625	-0.2548117370605469	0		4.694759765625	-0.12158810424804688	0		5.589291015625	0.14149966430664063	0		-0.26810980224609376	5.900474609375	0		
